<svg xmlns="http://www.w3.org/2000/svg" width="22" height="17.944" viewBox="0 0 22 17.944" fill="none">
  <path d="M 22 0.01 L 23.215 0.306 C 23.338 -0.2 23.134 -0.73 22.703 -1.023 C 22.273 -1.316 21.705 -1.312 21.279 -1.011 L 22 0.01 Z M 18.86 1.54 L 17.917 2.36 C 18.239 2.731 18.75 2.879 19.22 2.737 L 18.86 1.54 Z M 11 4.54 L 12.25 4.54 C 12.25 4.534 12.25 4.529 12.25 4.523 L 11 4.54 Z M 11 5.54 L 11.032 6.79 C 11.71 6.772 12.25 6.218 12.25 5.54 L 11 5.54 Z M 2 1.01 L 3.023 0.292 C 2.764 -0.077 2.327 -0.278 1.879 -0.234 C 1.431 -0.19 1.041 0.091 0.858 0.502 L 2 1.01 Z M 7 14.01 L 7.702 15.044 C 8.078 14.789 8.285 14.351 8.245 13.899 C 8.205 13.447 7.922 13.052 7.508 12.868 L 7 14.01 Z M 0 16.01 L 0.05 14.761 C -0.529 14.738 -1.047 15.115 -1.204 15.673 C -1.36 16.23 -1.113 16.822 -0.607 17.103 L 0 16.01 Z M 20 4.51 L 21.25 4.51 L 21.25 4.506 L 20 4.51 Z M 19.92 3.68 L 19.042 2.79 C 18.745 3.083 18.614 3.505 18.692 3.915 L 19.92 3.68 Z M 22 0.01 L 21.279 -1.011 C 20.432 -0.413 19.493 0.044 18.5 0.343 L 18.86 1.54 L 19.22 2.737 C 20.471 2.36 21.653 1.784 22.721 1.032 L 22 0.01 Z M 18.86 1.54 L 19.803 0.72 C 19.033 -0.166 18.009 -0.794 16.87 -1.079 L 16.567 0.134 L 16.264 1.347 C 16.906 1.507 17.483 1.861 17.917 2.36 L 18.86 1.54 Z M 16.567 0.134 L 16.87 -1.079 C 15.732 -1.364 14.533 -1.292 13.436 -0.873 L 13.882 0.295 L 14.328 1.462 C 14.946 1.226 15.622 1.186 16.264 1.347 L 16.567 0.134 Z M 13.882 0.295 L 13.436 -0.873 C 12.34 -0.455 11.398 0.291 10.739 1.262 L 11.773 1.964 L 12.807 2.666 C 13.179 2.118 13.71 1.698 14.328 1.462 L 13.882 0.295 Z M 11.773 1.964 L 10.739 1.262 C 10.079 2.233 9.734 3.383 9.75 4.557 L 11 4.54 L 12.25 4.523 C 12.241 3.862 12.436 3.213 12.807 2.666 L 11.773 1.964 Z M 11 4.54 L 9.75 4.54 L 9.75 5.54 L 11 5.54 L 12.25 5.54 L 12.25 4.54 L 11 4.54 Z M 11 5.54 L 10.968 4.29 C 9.416 4.331 7.879 3.987 6.493 3.289 L 5.931 4.406 L 5.369 5.522 C 7.123 6.405 9.069 6.841 11.032 6.79 L 11 5.54 Z M 5.931 4.406 L 6.493 3.289 C 5.107 2.591 3.915 1.562 3.023 0.292 L 2 1.01 L 0.977 1.728 C 2.106 3.336 3.615 4.639 5.369 5.522 L 5.931 4.406 Z M 2 1.01 C 0.858 0.502 0.857 0.503 0.857 0.504 C 0.857 0.504 0.857 0.505 0.857 0.505 C 0.856 0.506 0.856 0.507 0.855 0.509 C 0.854 0.511 0.852 0.514 0.851 0.518 C 0.848 0.525 0.844 0.535 0.838 0.547 C 0.828 0.57 0.815 0.602 0.799 0.643 C 0.766 0.723 0.722 0.837 0.67 0.98 C 0.567 1.265 0.434 1.67 0.305 2.166 C 0.05 3.152 -0.193 4.532 -0.124 6.067 C -0.054 7.607 0.334 9.331 1.366 10.96 C 2.403 12.597 4.042 14.063 6.492 15.152 L 7 14.01 L 7.508 12.868 C 5.458 11.957 4.222 10.798 3.478 9.622 C 2.729 8.439 2.429 7.163 2.374 5.953 C 2.318 4.738 2.512 3.618 2.726 2.792 C 2.832 2.382 2.941 2.052 3.021 1.83 C 3.061 1.718 3.094 1.635 3.116 1.581 C 3.127 1.555 3.135 1.536 3.139 1.525 C 3.141 1.52 3.143 1.516 3.143 1.515 C 3.144 1.515 3.144 1.514 3.144 1.515 C 3.143 1.515 3.143 1.515 3.143 1.516 C 3.143 1.516 3.143 1.517 3.143 1.517 C 3.142 1.517 3.142 1.518 2 1.01 Z M 7 14.01 L 6.298 12.976 C 4.46 14.224 2.27 14.849 0.05 14.761 L 0 16.01 L -0.05 17.259 C 2.705 17.369 5.421 16.592 7.702 15.044 L 7 14.01 Z M 0 16.01 L -0.607 17.103 C 4.239 19.795 9.689 19.826 13.962 17.551 C 18.266 15.26 21.25 10.697 21.25 4.51 L 20 4.51 L 18.75 4.51 C 18.75 9.823 16.234 13.51 12.788 15.344 C 9.311 17.194 4.761 17.225 0.607 14.917 L 0 16.01 Z M 20 4.51 L 21.25 4.506 C 21.249 4.15 21.215 3.795 21.148 3.445 L 19.92 3.68 L 18.692 3.915 C 18.73 4.112 18.749 4.313 18.75 4.514 L 20 4.51 Z M 19.92 3.68 L 20.798 4.57 C 21.984 3.401 22.82 1.924 23.215 0.306 L 22 0.01 L 20.785 -0.286 C 20.501 0.881 19.898 1.947 19.042 2.79 L 19.92 3.68 Z" fill="currentColor" fill-rule="nonzero"></path>
</svg>