<svg xmlns="http://www.w3.org/2000/svg" width="26" height="28.036" viewBox="0 0 26 28.036" fill="none">
  <path d="M 9.764 25.472 C 10.558 25.234 11.008 24.398 10.77 23.605 C 10.532 22.811 9.696 22.361 8.902 22.599 L 9.333 24.036 L 9.764 25.472 Z M 0.364 18.581 C -0.44 18.38 -1.254 18.868 -1.455 19.672 C -1.656 20.476 -1.167 21.29 -0.364 21.491 L 0 20.036 L 0.364 18.581 Z M 17.167 28.036 C 17.167 28.864 17.838 29.536 18.667 29.536 C 19.495 29.536 20.167 28.864 20.167 28.036 L 18.667 28.036 L 17.167 28.036 Z M 18.667 22.876 L 17.171 22.758 C 17.168 22.797 17.167 22.836 17.167 22.876 L 18.667 22.876 Z M 17.413 19.396 L 17.247 17.905 C 16.678 17.968 16.195 18.35 16.002 18.889 C 15.808 19.427 15.938 20.029 16.336 20.44 L 17.413 19.396 Z M 26 10.062 L 27.5 10.062 L 27.5 10.062 L 26 10.062 Z M 24 5.062 L 22.595 4.538 C 22.394 5.076 22.518 5.681 22.914 6.097 L 24 5.062 Z M 23.88 0.036 L 25.259 -0.555 C 25.083 -0.965 24.734 -1.276 24.307 -1.402 L 23.88 0.036 Z M 18.667 2.009 L 18.274 3.457 C 18.693 3.57 19.141 3.497 19.502 3.255 L 18.667 2.009 Z M 9.333 2.009 L 8.498 3.255 C 8.859 3.497 9.307 3.57 9.726 3.457 L 9.333 2.009 Z M 4.12 0.036 L 3.693 -1.402 C 3.266 -1.276 2.917 -0.965 2.741 -0.555 L 4.12 0.036 Z M 4 5.062 L 5.086 6.097 C 5.482 5.681 5.606 5.076 5.405 4.538 L 4 5.062 Z M 2 10.102 L 3.5 10.102 L 3.5 10.094 L 2 10.102 Z M 10.587 19.436 L 11.665 20.479 C 12.06 20.07 12.19 19.473 12.001 18.937 C 11.812 18.4 11.336 18.017 10.772 17.947 L 10.587 19.436 Z M 9.333 22.876 L 10.833 22.876 C 10.833 22.841 10.832 22.806 10.83 22.77 L 9.333 22.876 Z M 7.833 28.036 C 7.833 28.864 8.505 29.536 9.333 29.536 C 10.162 29.536 10.833 28.864 10.833 28.036 L 9.333 28.036 L 7.833 28.036 Z M 9.333 24.036 L 8.902 22.599 C 7.406 23.048 6.432 23.04 5.779 22.888 C 5.146 22.739 4.674 22.422 4.227 21.975 C 3.995 21.743 3.776 21.483 3.539 21.186 C 3.321 20.912 3.047 20.555 2.788 20.251 C 2.262 19.633 1.504 18.866 0.364 18.581 L 0 20.036 L -0.364 21.491 C -0.171 21.539 0.072 21.689 0.504 22.196 C 0.723 22.453 0.919 22.711 1.195 23.058 C 1.453 23.381 1.755 23.745 2.106 24.096 C 2.826 24.816 3.771 25.499 5.096 25.809 C 6.401 26.114 7.927 26.024 9.764 25.472 L 9.333 24.036 Z M 18.667 28.036 L 20.167 28.036 L 20.167 22.876 L 18.667 22.876 L 17.167 22.876 L 17.167 28.036 L 18.667 28.036 Z M 18.667 22.876 L 20.162 22.993 C 20.229 22.145 20.114 21.293 19.826 20.493 L 18.415 21.001 L 17.003 21.509 C 17.147 21.909 17.205 22.335 17.171 22.758 L 18.667 22.876 Z M 18.415 21.001 L 19.826 20.493 C 19.538 19.692 19.082 18.962 18.49 18.352 L 17.413 19.396 L 16.336 20.44 C 16.632 20.745 16.859 21.109 17.003 21.509 L 18.415 21.001 Z M 17.413 19.396 L 17.58 20.886 C 19.757 20.644 22.271 20.089 24.242 18.432 C 26.286 16.714 27.5 14.027 27.5 10.062 L 26 10.062 L 24.5 10.062 C 24.5 13.378 23.514 15.124 22.311 16.136 C 21.035 17.209 19.256 17.681 17.247 17.905 L 17.413 19.396 Z M 26 10.062 L 27.5 10.062 C 27.5 7.816 26.635 5.655 25.086 4.028 L 24 5.062 L 22.914 6.097 C 23.932 7.166 24.5 8.586 24.5 10.063 L 26 10.062 Z M 24 5.062 L 25.405 5.587 C 26.148 3.597 26.095 1.397 25.259 -0.555 L 23.88 0.036 L 22.501 0.627 C 23.034 1.87 23.068 3.271 22.595 4.538 L 24 5.062 Z M 23.88 0.036 C 24.307 -1.402 24.305 -1.403 24.304 -1.403 C 24.303 -1.403 24.302 -1.404 24.301 -1.404 C 24.299 -1.405 24.297 -1.405 24.295 -1.406 C 24.291 -1.407 24.286 -1.408 24.282 -1.409 C 24.274 -1.412 24.265 -1.414 24.255 -1.417 C 24.237 -1.422 24.216 -1.427 24.194 -1.432 C 24.15 -1.442 24.099 -1.452 24.042 -1.461 C 23.926 -1.479 23.786 -1.494 23.619 -1.498 C 23.284 -1.508 22.85 -1.476 22.313 -1.357 C 21.242 -1.119 19.768 -0.535 17.831 0.763 L 18.667 2.009 L 19.502 3.255 C 21.206 2.113 22.338 1.711 22.963 1.572 C 23.275 1.503 23.462 1.498 23.536 1.5 C 23.573 1.501 23.584 1.504 23.569 1.502 C 23.562 1.501 23.548 1.498 23.529 1.494 C 23.519 1.492 23.508 1.489 23.495 1.486 C 23.489 1.484 23.483 1.482 23.476 1.48 C 23.472 1.479 23.468 1.478 23.465 1.477 C 23.463 1.477 23.461 1.476 23.459 1.475 C 23.458 1.475 23.457 1.475 23.456 1.475 C 23.455 1.474 23.453 1.474 23.88 0.036 Z M 18.667 2.009 L 19.059 0.561 C 15.746 -0.337 12.254 -0.337 8.941 0.561 L 9.333 2.009 L 9.726 3.457 C 12.525 2.698 15.475 2.698 18.274 3.457 L 18.667 2.009 Z M 9.333 2.009 L 10.169 0.763 C 8.232 -0.535 6.758 -1.119 5.687 -1.357 C 5.15 -1.476 4.716 -1.508 4.381 -1.498 C 4.214 -1.494 4.074 -1.479 3.958 -1.461 C 3.901 -1.452 3.85 -1.442 3.806 -1.432 C 3.784 -1.427 3.763 -1.422 3.745 -1.417 C 3.735 -1.414 3.726 -1.412 3.718 -1.409 C 3.714 -1.408 3.709 -1.407 3.705 -1.406 C 3.703 -1.405 3.701 -1.405 3.699 -1.404 C 3.698 -1.404 3.697 -1.403 3.696 -1.403 C 3.695 -1.403 3.693 -1.402 4.12 0.036 C 4.547 1.474 4.545 1.474 4.544 1.475 C 4.543 1.475 4.542 1.475 4.541 1.475 C 4.539 1.476 4.537 1.477 4.535 1.477 C 4.532 1.478 4.528 1.479 4.524 1.48 C 4.517 1.482 4.511 1.484 4.505 1.486 C 4.492 1.489 4.481 1.492 4.471 1.494 C 4.452 1.498 4.438 1.501 4.431 1.502 C 4.416 1.504 4.427 1.501 4.464 1.5 C 4.538 1.498 4.725 1.503 5.037 1.572 C 5.662 1.711 6.794 2.113 8.498 3.255 L 9.333 2.009 Z M 4.12 0.036 L 2.741 -0.555 C 1.905 1.397 1.852 3.597 2.595 5.587 L 4 5.062 L 5.405 4.538 C 4.932 3.271 4.966 1.87 5.499 0.627 L 4.12 0.036 Z M 4 5.062 L 2.914 4.028 C 1.353 5.667 0.488 7.847 0.5 10.11 L 2 10.102 L 3.5 10.094 C 3.492 8.607 4.061 7.174 5.086 6.097 L 4 5.062 Z M 2 10.102 L 0.5 10.102 C 0.5 14.045 1.717 16.716 3.758 18.432 C 5.723 20.085 8.232 20.655 10.402 20.924 L 10.587 19.436 L 10.772 17.947 C 8.755 17.697 6.97 17.213 5.689 16.136 C 4.483 15.122 3.5 13.387 3.5 10.102 L 2 10.102 Z M 10.587 19.436 L 9.509 18.393 C 8.924 18.997 8.472 19.718 8.184 20.509 L 9.594 21.022 L 11.003 21.536 C 11.147 21.141 11.372 20.781 11.665 20.479 L 10.587 19.436 Z M 9.594 21.022 L 8.184 20.509 C 7.896 21.299 7.778 22.142 7.837 22.981 L 9.333 22.876 L 10.83 22.77 C 10.8 22.351 10.859 21.931 11.003 21.536 L 9.594 21.022 Z M 9.333 22.876 L 7.833 22.876 L 7.833 28.036 L 9.333 28.036 L 10.833 28.036 L 10.833 22.876 L 9.333 22.876 Z" fill="currentColor" fill-rule="nonzero"></path>
</svg>