<svg xmlns="http://www.w3.org/2000/svg" width="20" height="19" viewBox="0 0 20 19" fill="none">
  <path d="M 20 19 L 20 20.25 C 20.69 20.25 21.25 19.69 21.25 19 L 20 19 Z M 16 19 L 14.75 19 C 14.75 19.69 15.31 20.25 16 20.25 L 16 19 Z M 12 19 L 12 20.25 C 12.69 20.25 13.25 19.69 13.25 19 L 12 19 Z M 8 19 L 6.75 19 C 6.75 19.69 7.31 20.25 8 20.25 L 8 19 Z M 0 7 L 0 5.75 C -0.69 5.75 -1.25 6.31 -1.25 7 L 0 7 Z M 4 7 L 5.25 7 C 5.25 6.31 4.69 5.75 4 5.75 L 4 7 Z M 4 19 L 4 20.25 C 4.69 20.25 5.25 19.69 5.25 19 L 4 19 Z M 0 19 L -1.25 19 C -1.25 19.69 -0.69 20.25 0 20.25 L 0 19 Z M 14 6 L 14 7.25 C 15.26 7.25 16.468 7.75 17.359 8.641 L 18.243 7.757 L 19.127 6.873 C 17.767 5.514 15.923 4.75 14 4.75 L 14 6 Z M 18.243 7.757 L 17.359 8.641 C 18.25 9.532 18.75 10.74 18.75 12 L 20 12 L 21.25 12 C 21.25 10.077 20.486 8.233 19.127 6.873 L 18.243 7.757 Z M 20 12 L 18.75 12 L 18.75 19 L 20 19 L 21.25 19 L 21.25 12 L 20 12 Z M 20 19 L 20 17.75 L 16 17.75 L 16 19 L 16 20.25 L 20 20.25 L 20 19 Z M 16 19 L 17.25 19 L 17.25 12 L 16 12 L 14.75 12 L 14.75 19 L 16 19 Z M 16 12 L 17.25 12 C 17.25 11.138 16.908 10.311 16.298 9.702 L 15.414 10.586 L 14.53 11.47 C 14.671 11.61 14.75 11.801 14.75 12 L 16 12 Z M 15.414 10.586 L 16.298 9.702 C 15.689 9.092 14.862 8.75 14 8.75 L 14 10 L 14 11.25 C 14.199 11.25 14.39 11.329 14.53 11.47 L 15.414 10.586 Z M 14 10 L 14 8.75 C 13.138 8.75 12.311 9.092 11.702 9.702 L 12.586 10.586 L 13.47 11.47 C 13.61 11.329 13.801 11.25 14 11.25 L 14 10 Z M 12.586 10.586 L 11.702 9.702 C 11.092 10.311 10.75 11.138 10.75 12 L 12 12 L 13.25 12 C 13.25 11.801 13.329 11.61 13.47 11.47 L 12.586 10.586 Z M 12 12 L 10.75 12 L 10.75 19 L 12 19 L 13.25 19 L 13.25 12 L 12 12 Z M 12 19 L 12 17.75 L 8 17.75 L 8 19 L 8 20.25 L 12 20.25 L 12 19 Z M 8 19 L 9.25 19 L 9.25 12 L 8 12 L 6.75 12 L 6.75 19 L 8 19 Z M 8 12 L 9.25 12 C 9.25 10.74 9.75 9.532 10.641 8.641 L 9.757 7.757 L 8.873 6.873 C 7.514 8.233 6.75 10.077 6.75 12 L 8 12 Z M 9.757 7.757 L 10.641 8.641 C 11.532 7.75 12.74 7.25 14 7.25 L 14 6 L 14 4.75 C 12.077 4.75 10.233 5.514 8.873 6.873 L 9.757 7.757 Z M 0 7 L 0 8.25 L 4 8.25 L 4 7 L 4 5.75 L 0 5.75 L 0 7 Z M 4 7 L 2.75 7 L 2.75 19 L 4 19 L 5.25 19 L 5.25 7 L 4 7 Z M 4 19 L 4 17.75 L 0 17.75 L 0 19 L 0 20.25 L 4 20.25 L 4 19 Z M 0 19 L 1.25 19 L 1.25 7 L 0 7 L -1.25 7 L -1.25 19 L 0 19 Z M 4 2 L 2.75 2 C 2.75 2.414 2.414 2.75 2 2.75 L 2 4 L 2 5.25 C 3.795 5.25 5.25 3.795 5.25 2 L 4 2 Z M 2 4 L 2 2.75 C 1.586 2.75 1.25 2.414 1.25 2 L 0 2 L -1.25 2 C -1.25 3.795 0.205 5.25 2 5.25 L 2 4 Z M 0 2 L 1.25 2 C 1.25 1.586 1.586 1.25 2 1.25 L 2 0 L 2 -1.25 C 0.205 -1.25 -1.25 0.205 -1.25 2 L 0 2 Z M 2 0 L 2 1.25 C 2.414 1.25 2.75 1.586 2.75 2 L 4 2 L 5.25 2 C 5.25 0.205 3.795 -1.25 2 -1.25 L 2 0 Z" fill="currentColor" fill-rule="nonzero"></path>
</svg>