<svg xmlns="http://www.w3.org/2000/svg" width="29.335" height="20.613" viewBox="0 0 29.335 20.613" fill="none">
  <path d="M 28.721 3.227 L 30.197 2.96 C 30.191 2.928 30.184 2.895 30.176 2.862 L 28.721 3.227 Z M 26.134 0.56 L 26.542 -0.883 C 26.525 -0.888 26.508 -0.893 26.49 -0.897 L 26.134 0.56 Z M 14.667 0 L 14.667 -1.5 L 14.667 0 Z M 3.201 0.613 L 2.813 -0.836 C 2.806 -0.834 2.799 -0.832 2.792 -0.83 L 3.201 0.613 Z M 0.614 3.28 L -0.841 2.916 C -0.849 2.948 -0.856 2.981 -0.862 3.014 L 0.614 3.28 Z M 0.001 10.333 L 1.501 10.343 C 1.501 10.337 1.501 10.332 1.501 10.326 L 0.001 10.333 Z M 0.614 17.44 L -0.862 17.706 C -0.853 17.755 -0.842 17.803 -0.829 17.851 L 0.614 17.44 Z M 3.201 20 L 2.805 21.447 L 2.813 21.449 L 3.201 20 Z M 14.667 20.613 L 14.667 19.113 L 14.667 19.113 L 14.667 20.613 Z M 26.134 20 L 26.522 21.449 C 26.529 21.447 26.536 21.445 26.542 21.443 L 26.134 20 Z M 28.721 17.333 L 30.176 17.698 C 30.184 17.665 30.191 17.632 30.197 17.599 L 28.721 17.333 Z M 29.334 10.333 L 27.834 10.324 C 27.834 10.329 27.834 10.334 27.834 10.339 L 29.334 10.333 Z M 11.667 14.693 L 10.167 14.693 C 10.167 15.227 10.451 15.721 10.913 15.99 C 11.375 16.259 11.945 16.261 12.409 15.997 L 11.667 14.693 Z M 19.334 10.333 L 20.076 11.637 C 20.544 11.371 20.834 10.873 20.834 10.333 C 20.834 9.794 20.544 9.296 20.076 9.029 L 19.334 10.333 Z M 11.667 5.973 L 12.409 4.669 C 11.945 4.405 11.375 4.408 10.913 4.677 C 10.451 4.945 10.167 5.439 10.167 5.973 L 11.667 5.973 Z M 28.721 3.227 L 30.176 2.862 C 29.953 1.974 29.5 1.159 28.862 0.501 L 27.786 1.546 L 26.709 2.59 C 26.979 2.869 27.171 3.214 27.266 3.591 L 28.721 3.227 Z M 27.786 1.546 L 28.862 0.501 C 28.224 -0.156 27.424 -0.634 26.542 -0.883 L 26.134 0.56 L 25.726 2.003 C 26.099 2.109 26.439 2.312 26.709 2.59 L 27.786 1.546 Z M 26.134 0.56 L 26.49 -0.897 C 25.773 -1.072 24.646 -1.182 23.475 -1.26 C 22.264 -1.341 20.881 -1.394 19.581 -1.429 C 18.28 -1.465 17.053 -1.482 16.151 -1.491 C 15.7 -1.496 15.33 -1.498 15.073 -1.499 C 14.944 -1.499 14.843 -1.5 14.774 -1.5 C 14.74 -1.5 14.713 -1.5 14.695 -1.5 C 14.686 -1.5 14.679 -1.5 14.675 -1.5 C 14.672 -1.5 14.671 -1.5 14.669 -1.5 C 14.669 -1.5 14.668 -1.5 14.668 -1.5 C 14.668 -1.5 14.668 -1.5 14.668 -1.5 C 14.668 -1.5 14.667 -1.5 14.667 0 C 14.667 1.5 14.667 1.5 14.667 1.5 C 14.667 1.5 14.668 1.5 14.668 1.5 C 14.668 1.5 14.668 1.5 14.669 1.5 C 14.67 1.5 14.671 1.5 14.673 1.5 C 14.678 1.5 14.684 1.5 14.692 1.5 C 14.709 1.5 14.735 1.5 14.768 1.5 C 14.835 1.5 14.933 1.501 15.06 1.501 C 15.313 1.502 15.677 1.504 16.122 1.509 C 17.012 1.517 18.221 1.535 19.5 1.569 C 20.781 1.604 22.121 1.656 23.275 1.733 C 24.469 1.812 25.349 1.912 25.778 2.017 L 26.134 0.56 Z M 14.667 0 C 14.667 -1.5 14.667 -1.5 14.667 -1.5 C 14.667 -1.5 14.667 -1.5 14.667 -1.5 C 14.666 -1.5 14.666 -1.5 14.665 -1.5 C 14.664 -1.5 14.662 -1.5 14.66 -1.5 C 14.655 -1.5 14.648 -1.5 14.639 -1.5 C 14.621 -1.5 14.595 -1.5 14.561 -1.5 C 14.492 -1.5 14.391 -1.499 14.262 -1.499 C 14.004 -1.498 13.634 -1.495 13.182 -1.49 C 12.28 -1.481 11.052 -1.461 9.75 -1.423 C 8.45 -1.384 7.064 -1.326 5.851 -1.237 C 4.68 -1.152 3.542 -1.031 2.813 -0.836 L 3.201 0.613 L 3.588 2.062 C 4.006 1.951 4.875 1.842 6.069 1.755 C 7.221 1.671 8.559 1.614 9.839 1.576 C 11.116 1.538 12.325 1.519 13.214 1.509 C 13.659 1.505 14.023 1.502 14.276 1.501 C 14.402 1.501 14.501 1.5 14.567 1.5 C 14.6 1.5 14.626 1.5 14.643 1.5 C 14.651 1.5 14.657 1.5 14.662 1.5 C 14.664 1.5 14.665 1.5 14.666 1.5 C 14.667 1.5 14.667 1.5 14.667 1.5 C 14.667 1.5 14.667 1.5 14.667 1.5 C 14.667 1.5 14.667 1.5 14.667 0 Z M 3.201 0.613 L 2.792 -0.83 C 1.911 -0.581 1.111 -0.103 0.473 0.555 L 1.549 1.599 L 2.626 2.644 C 2.896 2.365 3.235 2.162 3.609 2.057 L 3.201 0.613 Z M 1.549 1.599 L 0.473 0.555 C -0.165 1.213 -0.619 2.027 -0.841 2.916 L 0.614 3.28 L 2.069 3.644 C 2.163 3.267 2.356 2.922 2.626 2.644 L 1.549 1.599 Z M 0.614 3.28 L -0.862 3.014 C -1.298 5.431 -1.511 7.884 -1.499 10.341 L 0.001 10.333 L 1.501 10.326 C 1.49 8.053 1.687 5.783 2.09 3.546 L 0.614 3.28 Z M 0.001 10.333 L -1.499 10.324 C -1.515 12.799 -1.301 15.27 -0.862 17.706 L 0.614 17.44 L 2.09 17.174 C 1.684 14.92 1.486 12.633 1.501 10.343 L 0.001 10.333 Z M 0.614 17.44 L -0.829 17.851 C -0.583 18.712 -0.12 19.496 0.516 20.125 L 1.572 19.059 L 2.627 17.993 C 2.357 17.726 2.161 17.394 2.057 17.029 L 0.614 17.44 Z M 1.572 19.059 L 0.516 20.125 C 1.153 20.755 1.941 21.21 2.805 21.447 L 3.201 20 L 3.597 18.553 C 3.231 18.453 2.897 18.26 2.627 17.993 L 1.572 19.059 Z M 3.201 20 L 2.813 21.449 C 3.542 21.644 4.68 21.765 5.851 21.851 C 7.064 21.939 8.45 21.997 9.75 22.036 C 11.052 22.075 12.28 22.094 13.182 22.104 C 13.634 22.108 14.004 22.111 14.262 22.112 C 14.391 22.113 14.492 22.113 14.561 22.113 C 14.595 22.113 14.621 22.113 14.639 22.113 C 14.648 22.113 14.655 22.113 14.66 22.113 C 14.662 22.113 14.664 22.113 14.665 22.113 C 14.666 22.113 14.666 22.113 14.667 22.113 C 14.667 22.113 14.667 22.113 14.667 22.113 C 14.667 22.113 14.667 22.113 14.667 20.613 C 14.667 19.113 14.667 19.113 14.667 19.113 C 14.667 19.113 14.667 19.113 14.667 19.113 C 14.667 19.113 14.667 19.113 14.666 19.113 C 14.665 19.113 14.664 19.113 14.662 19.113 C 14.657 19.113 14.651 19.113 14.643 19.113 C 14.626 19.113 14.6 19.113 14.567 19.113 C 14.501 19.113 14.402 19.113 14.276 19.112 C 14.023 19.111 13.659 19.109 13.214 19.104 C 12.325 19.094 11.116 19.075 9.839 19.037 C 8.559 18.999 7.221 18.943 6.069 18.859 C 4.875 18.771 4.006 18.663 3.588 18.551 L 3.201 20 Z M 14.667 20.613 C 14.667 22.113 14.668 22.113 14.668 22.113 C 14.668 22.113 14.668 22.113 14.668 22.113 C 14.668 22.113 14.669 22.113 14.669 22.113 C 14.671 22.113 14.673 22.113 14.675 22.113 C 14.68 22.113 14.686 22.113 14.695 22.113 C 14.713 22.113 14.74 22.113 14.774 22.113 C 14.843 22.113 14.944 22.113 15.073 22.112 C 15.331 22.111 15.701 22.108 16.153 22.104 C 17.055 22.094 18.283 22.075 19.585 22.036 C 20.885 21.997 22.271 21.939 23.484 21.851 C 24.655 21.765 25.793 21.644 26.522 21.449 L 26.134 20 L 25.747 18.551 C 25.329 18.663 24.46 18.771 23.266 18.859 C 22.114 18.943 20.776 18.999 19.496 19.037 C 18.219 19.075 17.01 19.094 16.121 19.104 C 15.676 19.109 15.312 19.111 15.059 19.112 C 14.933 19.113 14.834 19.113 14.768 19.113 C 14.734 19.113 14.709 19.113 14.692 19.113 C 14.684 19.113 14.677 19.113 14.673 19.113 C 14.671 19.113 14.67 19.113 14.669 19.113 C 14.668 19.113 14.668 19.113 14.668 19.113 C 14.668 19.113 14.667 19.113 14.667 19.113 C 14.667 19.113 14.667 19.113 14.667 20.613 Z M 26.134 20 L 26.542 21.443 C 27.424 21.194 28.224 20.716 28.862 20.059 L 27.786 19.014 L 26.709 17.97 C 26.439 18.248 26.099 18.451 25.726 18.557 L 26.134 20 Z M 27.786 19.014 L 28.862 20.059 C 29.5 19.401 29.953 18.586 30.176 17.698 L 28.721 17.333 L 27.266 16.969 C 27.171 17.346 26.979 17.691 26.709 17.97 L 27.786 19.014 Z M 28.721 17.333 L 30.197 17.599 C 30.63 15.2 30.843 12.766 30.834 10.328 L 29.334 10.333 L 27.834 10.339 C 27.842 12.595 27.645 14.847 27.245 17.067 L 28.721 17.333 Z M 29.334 10.333 L 30.834 10.343 C 30.85 7.868 30.636 5.396 30.197 2.96 L 28.721 3.227 L 27.245 3.493 C 27.651 5.747 27.849 8.034 27.834 10.324 L 29.334 10.333 Z M 11.667 14.693 L 12.409 15.997 L 20.076 11.637 L 19.334 10.333 L 18.593 9.029 L 10.926 13.389 L 11.667 14.693 Z M 19.334 10.333 L 20.076 9.029 L 12.409 4.669 L 11.667 5.973 L 10.926 7.277 L 18.593 11.637 L 19.334 10.333 Z M 11.667 5.973 L 10.167 5.973 L 10.167 14.693 L 11.667 14.693 L 13.167 14.693 L 13.167 5.973 L 11.667 5.973 Z" fill="currentColor" fill-rule="nonzero"></path>
</svg>