<svg xmlns="http://www.w3.org/2000/svg" width="31.493" height="30.357" viewBox="0 0 31.493 30.357" fill="none">
  <path d="M 16.015 6.687 C 19.78 6.687 22.826 9.292 23.605 12.902 L 31.493 12.902 C 31.073 9.175 29.462 6.037 26.53 3.61 C 23.605 1.183 20.078 0 15.955 0 C 11.354 0 7.529 1.421 4.54 4.261 C 1.493 7.16 0 10.767 0 15.208 C 0 19.65 1.493 23.257 4.54 26.096 C 7.529 28.935 11.351 30.357 15.955 30.357 C 20.078 30.357 23.605 29.173 26.53 26.75 C 29.458 24.323 31.073 21.246 31.493 17.518 L 23.666 17.518 C 22.887 21.128 19.783 23.673 16.015 23.673 C 11.415 23.673 8.006 20.123 8.006 15.212 C 8.006 10.301 11.293 6.691 16.015 6.691 L 16.015 6.687 Z" fill="currentColor" fill-rule="nonzero"></path>
</svg>