<svg xmlns="http://www.w3.org/2000/svg" viewBox="0 0 320 60" fill="none">
  
  <path d="M 15.015 12.687 C 18.78 12.687 21.826 15.292 22.605 18.902 L 30.493 18.902 C 30.073 15.175 28.462 12.037 25.53 9.61 C 22.605 7.183 19.078 6 14.955 6 C 10.354 6 6.529 7.421 3.54 10.261 C 0.493 13.16 -1 16.767 -1 21.208 C -1 25.65 0.493 29.257 3.54 32.096 C 6.529 34.935 10.351 36.357 14.955 36.357 C 19.078 36.357 22.605 35.173 25.53 32.75 C 28.458 30.323 30.073 27.246 30.493 23.518 L 22.666 23.518 C 21.887 27.128 18.783 29.673 15.015 29.673 C 10.415 29.673 7.006 26.123 7.006 21.212 C 7.006 16.301 10.293 12.691 15.015 12.691 L 15.015 12.687 Z" fill="currentColor" transform="translate(0 9)"></path>
  
  <text x="42" y="44" font-family="NB International Pro, sans-serif" font-weight="700" font-size="38" fill="currentColor" letter-spacing="-1">ore</text>
  
  <text x="130" y="44" font-family="NB International Pro, sans-serif" font-weight="700" font-size="38" fill="currentColor" letter-spacing="-1">42</text>
</svg>